<?xml version="1.0" encoding="utf-8"?>
<!-- Generator: Adobe Illustrator 26.1.0, SVG Export Plug-In . SVG Version: 6.00 Build 0)  -->
<svg version="1.0"
	xmlns="http://www.w3.org/2000/svg"
	xmlns:xlink="http://www.w3.org/1999/xlink" x="0px" y="0px" viewBox="0 0 16 16" style="enable-background:new 0 0 16 16;" xml:space="preserve">
<g id="home-icon">
		<path d="M14.8,5.4L8.3,0.4c-0.2-0.1-0.4-0.1-0.6,0L1.2,5.4C1.1,5.5,1,5.7,1,5.8v8c0,1.1,0.9,1.9,1.9,1.9h10.1
		c1.1,0,1.9-0.9,1.9-1.9v-8C15,5.7,14.9,5.5,14.8,5.4z M9.7,14.7H6.3V8.5h3.3V14.7z M14,13.8c0,0.5-0.4,0.9-0.9,0.9h-2.4V8
		c0-0.3-0.2-0.5-0.5-0.5H5.8C5.6,7.5,5.3,7.7,5.3,8v6.7H2.9c-0.5,0-0.9-0.4-0.9-0.9V6.1l6-4.7l6,4.7V13.8z"/>
	</g>
</svg>
