<?xml version="1.0" encoding="utf-8"?>
<!-- Generator: Adobe Illustrator 26.1.0, SVG Export Plug-In . SVG Version: 6.00 Build 0)  -->
<svg version="1.0"
	xmlns="http://www.w3.org/2000/svg"
	xmlns:xlink="http://www.w3.org/1999/xlink" x="0px" y="0px" viewBox="0 0 16 16" style="enable-background:new 0 0 16 16;" xml:space="preserve">
<g id="instagram-icon">
		<g id="Icon_awesome-instagram">
			<path d="M8,4.1C5.8,4.1,4.1,5.8,4.1,8s1.8,3.9,3.9,3.9s3.9-1.8,3.9-3.9C11.9,5.8,10.2,4.1,8,4.1C8,4.1,8,4.1,8,4.1z M8,10.6
			c-1.4,0-2.6-1.1-2.6-2.6S6.6,5.4,8,5.4c1.4,0,2.6,1.1,2.6,2.6C10.6,9.4,9.4,10.6,8,10.6L8,10.6z M13,3.9c0,0.5-0.4,0.9-0.9,0.9
			s-0.9-0.4-0.9-0.9S11.6,3,12.1,3l0,0C12.6,3,13,3.4,13,3.9C13,3.9,13,3.9,13,3.9z M15.6,4.8c0-1.2-0.4-2.4-1.2-3.2
			c-0.9-0.8-2-1.3-3.2-1.2c-1.3-0.1-5.1-0.1-6.3,0c-1.2,0-2.3,0.4-3.2,1.2c-0.8,0.9-1.3,2-1.2,3.2c-0.1,1.3-0.1,5.1,0,6.3
			c0,1.2,0.4,2.4,1.2,3.2c0.9,0.8,2,1.3,3.2,1.2c1.3,0.1,5.1,0.1,6.3,0c1.2,0,2.4-0.4,3.2-1.2c0.8-0.9,1.3-2,1.2-3.2
			C15.7,9.9,15.7,6.1,15.6,4.8z M14,12.5c-0.3,0.7-0.8,1.2-1.5,1.5c-1,0.4-3.4,0.3-4.5,0.3S4.5,14.4,3.5,14
			c-0.7-0.3-1.2-0.8-1.5-1.5c-0.4-1-0.3-3.4-0.3-4.5S1.6,4.5,2,3.5C2.3,2.8,2.8,2.3,3.5,2c1-0.4,3.4-0.3,4.5-0.3s3.5-0.1,4.5,0.3
			c0.7,0.3,1.2,0.8,1.5,1.5c0.4,1,0.3,3.4,0.3,4.5S14.4,11.5,14,12.5z"/>
		</g>
	</g>
</svg>
