<?xml version="1.0" encoding="utf-8"?>
<!-- Generator: Adobe Illustrator 26.1.0, SVG Export Plug-In . SVG Version: 6.00 Build 0)  -->
<svg version="1.0"
	xmlns="http://www.w3.org/2000/svg"
	xmlns:xlink="http://www.w3.org/1999/xlink" x="0px" y="0px" viewBox="0 0 16 16" style="enable-background:new 0 0 16 16;" xml:space="preserve">
<g id="profile-icon">
		<path d="M11,8.2c-0.2-0.1-0.4-0.1-0.6-0.2h0c0.2-0.1,0.3-0.2,0.4-0.3c1.8-1.6,1.9-4.3,0.4-6.1C9.6-0.2,6.9-0.4,5.2,1.2
 C4.3,2,3.8,3.1,3.7,4.2C3.6,5.7,4.4,7.2,5.6,8C5.5,8,5.4,8.1,5.4,8.1c-3,1.1-5,3.9-5,7.1c0,0.4,0.2,0.7,0.5,0.7
 c0.3,0,0.5-0.2,0.6-0.6c0-0.3,0-0.6,0.1-1c0.2-1.1,0.6-2.1,1.3-2.9C5,8.4,9.1,7.9,12,10.1c1.6,1.2,2.6,3.1,2.6,5.1
 c0,0.2,0.1,0.4,0.2,0.5c0.2,0.1,0.4,0.2,0.6,0.1c0.2-0.1,0.3-0.3,0.3-0.6C15.6,12.2,13.8,9.4,11,8.2z M8,7.6
 c-1.8,0-3.2-1.4-3.2-3.2S6.2,1.2,8,1.2c0,0,0.1,0,0.1,0c1.7,0,3.1,1.5,3.1,3.2c0,0,0,0.1,0,0.1C11.1,6.3,9.7,7.7,8,7.6z" fill="#FFA9BE"/>
	</g>
</svg>
