<?xml version="1.0" encoding="utf-8"?>
<!-- Generator: Adobe Illustrator 26.1.0, SVG Export Plug-In . SVG Version: 6.00 Build 0)  -->
<svg version="1.0"
	xmlns="http://www.w3.org/2000/svg"
	xmlns:xlink="http://www.w3.org/1999/xlink" x="0px" y="0px" viewBox="0 0 16 16" style="enable-background:new 0 0 16 16;" xml:space="preserve">
<g id="sale-icon">
		<path d="M4,3.3C4,3.3,4,3.3,4,3.3C4,3.7,3.7,4,3.3,4C2.9,4,2.6,3.7,2.6,3.3c0-0.4,0.3-0.7,0.7-0.7C3.7,2.6,4.1,2.9,4,3.3z M6.2,5.5
		c0,0,0-0.1,0-0.1C6.2,4.6,6.9,3.9,7.7,4c0.7,0,1.2,0.6,1.2,1.3c0,0,0,0.1,0,0.1C8.8,6.1,8.2,6.7,7.4,6.7l0,0
		C6.7,6.7,6.2,6.2,6.2,5.5z M6.9,5.5C6.9,5.7,7.1,6,7.4,6c0,0,0,0,0,0c0.4,0,0.7-0.3,0.8-0.8C8.2,5,8,4.7,7.7,4.7c0,0,0,0-0.1,0h0
		C7.2,4.7,6.9,5,6.9,5.5z M11.3,7.4c0-0.2-0.2-0.3-0.4-0.3c-0.6,0.1-1.2,0.2-1.8,0.2L5.8,7.8C5.4,7.8,5.1,7.9,4.7,7.9c0,0,0,0,0,0
		C4.5,8,4.4,8.2,4.4,8.3c0,0.2,0.2,0.3,0.4,0.3l2-0.3l3.1-0.4c0.4,0,0.7-0.1,1.1-0.1C11.2,7.8,11.3,7.6,11.3,7.4L11.3,7.4
		C11.3,7.4,11.3,7.4,11.3,7.4z M9.6,10.3L9.6,10.3C9.6,10.3,9.6,10.3,9.6,10.3C9.6,10.3,9.6,10.3,9.6,10.3z M9.6,10.3
		c0,0.8-0.7,1.5-1.5,1.5c-0.1,0-0.3,0-0.4,0c-0.5-0.2-0.9-0.7-0.9-1.2C6.9,9.6,7.6,9,8.4,9c0,0,0.1,0,0.1,0
		C9.1,9.1,9.6,9.6,9.6,10.3z M8.9,10.3c0-0.3-0.2-0.5-0.5-0.5c0,0,0,0,0,0c-0.4,0-0.8,0.4-0.8,0.8v0C7.5,10.8,7.8,11,8,11
		c0,0,0,0,0,0C8.5,11,8.8,10.7,8.9,10.3z M15.2,9.9C15.2,9.9,15.2,9.9,15.2,9.9c-1.8,1.8-3.5,3.5-5.3,5.3c-0.5,0.6-1.4,0.6-2,0.1
		c0,0-0.1-0.1-0.1-0.1c-1.4-1.4-2.8-2.8-4.2-4.2C2.8,10.1,1.9,9.2,1,8.3c-0.4-0.4-0.7-1-0.7-1.6c0-0.8,0-1.6,0-2.4
		c0-0.8,0-1.7,0-2.5C0.4,1,1,0.4,1.8,0.4c0.7,0,1.4,0,2.1,0c0.9,0,1.9,0,2.8,0c0.6,0,1.2,0.2,1.6,0.7l4.2,4.2
		c0.9,0.9,1.8,1.8,2.7,2.7C15.7,8.4,15.8,9.3,15.2,9.9z M14.6,8.6C14.5,8.6,14.5,8.6,14.6,8.6c-0.5-0.5-0.9-0.9-1.2-1.2
		c-1.9-1.9-3.8-3.8-5.7-5.7C7.4,1.5,7.1,1.3,6.8,1.4c-1.6,0-3.3,0-4.9,0c-0.3,0-0.5,0.2-0.5,0.4c0,0,0,0.1,0,0.1v2.5l0,0
		c0,0.8,0,1.6,0,2.5c0,0.3,0.1,0.6,0.4,0.8c0.8,0.9,1.7,1.7,2.5,2.6l4.3,4.3c0.2,0.2,0.5,0.2,0.7,0.1c0,0,0.1-0.1,0.1-0.1l5.2-5.2
		C14.7,9.1,14.7,8.8,14.6,8.6z" fill="#000"/>
	</g>
</svg>
