<?xml version="1.0" encoding="utf-8"?>
<!-- Generator: Adobe Illustrator 26.1.0, SVG Export Plug-In . SVG Version: 6.00 Build 0)  -->
<svg version="1.0"
	xmlns="http://www.w3.org/2000/svg"
	xmlns:xlink="http://www.w3.org/1999/xlink" x="0px" y="0px" viewBox="0 0 16 16" style="enable-background:new 0 0 16 16;" xml:space="preserve">
<g id="tiktok-icon">
		<g id="Icon_simple-tiktok">
			<path d="M8.3,0.5c0.8,0,1.6,0,2.4,0c0,1,0.4,1.9,1.1,2.6c0.7,0.7,1.7,1.1,2.6,1.1v2.5c-0.9,0-1.8-0.2-2.6-0.6
			c-0.4-0.2-0.7-0.4-1-0.6c0,1.8,0,3.6,0,5.5c0,0.9-0.3,1.7-0.8,2.5c-0.8,1.2-2.2,2-3.7,2c-0.9,0-1.8-0.2-2.5-0.6
			c-1.3-0.8-2.1-2.1-2.3-3.6c0-0.3,0-0.6,0-0.9c0.3-2.6,2.6-4.5,5.1-4.2c0.1,0,0.2,0,0.3,0c0,0.9,0,1.8,0,2.8
			c-1.1-0.4-2.3,0.2-2.7,1.3c0,0,0,0,0,0c-0.1,0.3-0.1,0.7-0.1,1c0.2,1.1,1.1,1.8,2.2,1.8c0.7,0,1.4-0.4,1.7-1
			c0.1-0.2,0.2-0.4,0.3-0.7c0.1-1.1,0-2.2,0-3.3C8.3,5.5,8.3,3,8.3,0.5L8.3,0.5z"/>
		</g>
	</g>
</svg>
