<?xml version="1.0" encoding="utf-8"?>
<!-- Generator: Adobe Illustrator 26.1.0, SVG Export Plug-In . SVG Version: 6.00 Build 0)  -->
<svg version="1.0"
	xmlns="http://www.w3.org/2000/svg"
	xmlns:xlink="http://www.w3.org/1999/xlink" x="0px" y="0px" viewBox="0 0 16 16" style="enable-background:new 0 0 16 16;" xml:space="preserve">
	<g id="trash-icon">
		<path d="M14.6,3.1h-3.2v-1c0-1.1-0.9-2-2-2H6.5c-1.1,0-2,0.9-2,2v1H1.4c-0.3,0-0.5,0.2-0.5,0.5s0.2,0.5,0.5,0.5h1v9.7
		c0,1.1,0.9,2,2,2h7.3c1.1,0,2-0.9,2-2V4.1h1c0.3,0,0.5-0.2,0.5-0.5S14.9,3.1,14.6,3.1z M5.6,2.2c0-0.5,0.4-1,1-1h2.9
		c0.5,0,1,0.4,1,1v1H5.6V2.2z M12.6,13.8c0,0.5-0.4,1-1,1h-1.5c0-0.1,0-0.1,0-0.2V7.4c0-0.3-0.2-0.5-0.5-0.5S9.2,7.1,9.2,7.4v7.2
		c0,0.1,0,0.1,0,0.2H6.6c0-0.1,0-0.1,0-0.2V7.4c0-0.3-0.2-0.5-0.5-0.5S5.6,7.1,5.6,7.4v7.2c0,0.1,0,0.1,0,0.2H4.3c-0.5,0-1-0.4-1-1
		V4.1h9.2V13.8z" fill="#B9B9B9"/>
	</g>
</svg>
