<?xml version="1.0" encoding="utf-8"?>
<!-- Generator: Adobe Illustrator 26.1.0, SVG Export Plug-In . SVG Version: 6.00 Build 0)  -->
<svg version="1.0"
	xmlns="http://www.w3.org/2000/svg"
	xmlns:xlink="http://www.w3.org/1999/xlink" x="0px" y="0px" viewBox="0 0 16 16" style="enable-background:new 0 0 16 16;" xml:space="preserve">
	<g id="left-arrow-icon">
		<g id="Icon_feather-chevron-right">
			<path d="M11.6,15.6c-0.1,0-0.3,0-0.4-0.1L4.1,8.4C4,8.3,3.9,8.1,3.9,8S4,7.7,4.1,7.6l7.2-7.1c0.2-0.2,0.5-0.2,0.7,0s0.2,0.5,0,0.7
			L5.1,8l6.8,6.8c0.2,0.2,0.2,0.5,0,0.7C11.8,15.6,11.7,15.6,11.6,15.6z"/>
		</g>
	</g>
	<g id="youtube-icon">
		<path id="Icon_ionic-logo-youtube" d="M15.6,4.8c0.1-1.3-0.9-2.4-2.2-2.4c-1.6-0.1-3.3-0.1-5-0.1H7.8c-1.7,0-3.4,0-5,0.1
		C1.5,2.4,0.5,3.5,0.6,4.8C0.5,5.8,0.5,6.9,0.5,7.9s0,2.1,0.1,3.2c-0.1,1.3,0.9,2.4,2.2,2.4c1.7,0.1,3.5,0.1,5.3,0.1
		c1.8,0,3.6,0,5.3-0.1c1.3-0.1,2.3-1.1,2.2-2.4c0.1-1.1,0.1-2.1,0.1-3.2C15.7,6.9,15.7,5.8,15.6,4.8z M6.6,10.9V5l4.3,2.9L6.6,10.9z
		" fill=#000/>
	</g>
	<g id="tiktok-icon">
		<g id="Icon_simple-tiktok">
			<path d="M8.3,0.5c0.8,0,1.6,0,2.4,0c0,1,0.4,1.9,1.1,2.6c0.7,0.7,1.7,1.1,2.6,1.1v2.5c-0.9,0-1.8-0.2-2.6-0.6
			c-0.4-0.2-0.7-0.4-1-0.6c0,1.8,0,3.6,0,5.5c0,0.9-0.3,1.7-0.8,2.5c-0.8,1.2-2.2,2-3.7,2c-0.9,0-1.8-0.2-2.5-0.6
			c-1.3-0.8-2.1-2.1-2.3-3.6c0-0.3,0-0.6,0-0.9c0.3-2.6,2.6-4.5,5.1-4.2c0.1,0,0.2,0,0.3,0c0,0.9,0,1.8,0,2.8
			c-1.1-0.4-2.3,0.2-2.7,1.3c0,0,0,0,0,0c-0.1,0.3-0.1,0.7-0.1,1c0.2,1.1,1.1,1.8,2.2,1.8c0.7,0,1.4-0.4,1.7-1
			c0.1-0.2,0.2-0.4,0.3-0.7c0.1-1.1,0-2.2,0-3.3C8.3,5.5,8.3,3,8.3,0.5L8.3,0.5z"/>
		</g>
	</g>
	<g id="facebook-icon">
		<g id="Grupo_7369" transform="translate(-9.94)">
			<g id="Grupo_7368" transform="translate(694.256 4496.183)">
				<g id="Icon_zocial-facebook">
					<path d="M-680.4-4487.6v-2.9h2.3v-1.4c0-1,0.3-1.9,1-2.7c0.6-0.7,1.5-1.1,2.5-1.1h2.3v2.9h-2.3c-0.2,0-0.3,0.1-0.4,0.2
					c-0.1,0.2-0.2,0.4-0.2,0.6v1.5h2.9v2.9h-2.9v7h-2.9v-7H-680.4z"/>
				</g>
			</g>
		</g>
	</g>
	<g id="instagram-icon">
		<g id="Icon_awesome-instagram">
			<path d="M8,4.1C5.8,4.1,4.1,5.8,4.1,8s1.8,3.9,3.9,3.9s3.9-1.8,3.9-3.9C11.9,5.8,10.2,4.1,8,4.1C8,4.1,8,4.1,8,4.1z M8,10.6
			c-1.4,0-2.6-1.1-2.6-2.6S6.6,5.4,8,5.4c1.4,0,2.6,1.1,2.6,2.6C10.6,9.4,9.4,10.6,8,10.6L8,10.6z M13,3.9c0,0.5-0.4,0.9-0.9,0.9
			s-0.9-0.4-0.9-0.9S11.6,3,12.1,3l0,0C12.6,3,13,3.4,13,3.9C13,3.9,13,3.9,13,3.9z M15.6,4.8c0-1.2-0.4-2.4-1.2-3.2
			c-0.9-0.8-2-1.3-3.2-1.2c-1.3-0.1-5.1-0.1-6.3,0c-1.2,0-2.3,0.4-3.2,1.2c-0.8,0.9-1.3,2-1.2,3.2c-0.1,1.3-0.1,5.1,0,6.3
			c0,1.2,0.4,2.4,1.2,3.2c0.9,0.8,2,1.3,3.2,1.2c1.3,0.1,5.1,0.1,6.3,0c1.2,0,2.4-0.4,3.2-1.2c0.8-0.9,1.3-2,1.2-3.2
			C15.7,9.9,15.7,6.1,15.6,4.8z M14,12.5c-0.3,0.7-0.8,1.2-1.5,1.5c-1,0.4-3.4,0.3-4.5,0.3S4.5,14.4,3.5,14
			c-0.7-0.3-1.2-0.8-1.5-1.5c-0.4-1-0.3-3.4-0.3-4.5S1.6,4.5,2,3.5C2.3,2.8,2.8,2.3,3.5,2c1-0.4,3.4-0.3,4.5-0.3s3.5-0.1,4.5,0.3
			c0.7,0.3,1.2,0.8,1.5,1.5c0.4,1,0.3,3.4,0.3,4.5S14.4,11.5,14,12.5z"/>
		</g>
	</g>
	<g id="home-icon">
		<path d="M14.8,5.4L8.3,0.4c-0.2-0.1-0.4-0.1-0.6,0L1.2,5.4C1.1,5.5,1,5.7,1,5.8v8c0,1.1,0.9,1.9,1.9,1.9h10.1
		c1.1,0,1.9-0.9,1.9-1.9v-8C15,5.7,14.9,5.5,14.8,5.4z M9.7,14.7H6.3V8.5h3.3V14.7z M14,13.8c0,0.5-0.4,0.9-0.9,0.9h-2.4V8
		c0-0.3-0.2-0.5-0.5-0.5H5.8C5.6,7.5,5.3,7.7,5.3,8v6.7H2.9c-0.5,0-0.9-0.4-0.9-0.9V6.1l6-4.7l6,4.7V13.8z"/>
	</g>
	<g id="sale-icon">
		<path d="M4,3.3C4,3.3,4,3.3,4,3.3C4,3.7,3.7,4,3.3,4C2.9,4,2.6,3.7,2.6,3.3c0-0.4,0.3-0.7,0.7-0.7C3.7,2.6,4.1,2.9,4,3.3z M6.2,5.5
		c0,0,0-0.1,0-0.1C6.2,4.6,6.9,3.9,7.7,4c0.7,0,1.2,0.6,1.2,1.3c0,0,0,0.1,0,0.1C8.8,6.1,8.2,6.7,7.4,6.7l0,0
		C6.7,6.7,6.2,6.2,6.2,5.5z M6.9,5.5C6.9,5.7,7.1,6,7.4,6c0,0,0,0,0,0c0.4,0,0.7-0.3,0.8-0.8C8.2,5,8,4.7,7.7,4.7c0,0,0,0-0.1,0h0
		C7.2,4.7,6.9,5,6.9,5.5z M11.3,7.4c0-0.2-0.2-0.3-0.4-0.3c-0.6,0.1-1.2,0.2-1.8,0.2L5.8,7.8C5.4,7.8,5.1,7.9,4.7,7.9c0,0,0,0,0,0
		C4.5,8,4.4,8.2,4.4,8.3c0,0.2,0.2,0.3,0.4,0.3l2-0.3l3.1-0.4c0.4,0,0.7-0.1,1.1-0.1C11.2,7.8,11.3,7.6,11.3,7.4L11.3,7.4
		C11.3,7.4,11.3,7.4,11.3,7.4z M9.6,10.3L9.6,10.3C9.6,10.3,9.6,10.3,9.6,10.3C9.6,10.3,9.6,10.3,9.6,10.3z M9.6,10.3
		c0,0.8-0.7,1.5-1.5,1.5c-0.1,0-0.3,0-0.4,0c-0.5-0.2-0.9-0.7-0.9-1.2C6.9,9.6,7.6,9,8.4,9c0,0,0.1,0,0.1,0
		C9.1,9.1,9.6,9.6,9.6,10.3z M8.9,10.3c0-0.3-0.2-0.5-0.5-0.5c0,0,0,0,0,0c-0.4,0-0.8,0.4-0.8,0.8v0C7.5,10.8,7.8,11,8,11
		c0,0,0,0,0,0C8.5,11,8.8,10.7,8.9,10.3z M15.2,9.9C15.2,9.9,15.2,9.9,15.2,9.9c-1.8,1.8-3.5,3.5-5.3,5.3c-0.5,0.6-1.4,0.6-2,0.1
		c0,0-0.1-0.1-0.1-0.1c-1.4-1.4-2.8-2.8-4.2-4.2C2.8,10.1,1.9,9.2,1,8.3c-0.4-0.4-0.7-1-0.7-1.6c0-0.8,0-1.6,0-2.4
		c0-0.8,0-1.7,0-2.5C0.4,1,1,0.4,1.8,0.4c0.7,0,1.4,0,2.1,0c0.9,0,1.9,0,2.8,0c0.6,0,1.2,0.2,1.6,0.7l4.2,4.2
		c0.9,0.9,1.8,1.8,2.7,2.7C15.7,8.4,15.8,9.3,15.2,9.9z M14.6,8.6C14.5,8.6,14.5,8.6,14.6,8.6c-0.5-0.5-0.9-0.9-1.2-1.2
		c-1.9-1.9-3.8-3.8-5.7-5.7C7.4,1.5,7.1,1.3,6.8,1.4c-1.6,0-3.3,0-4.9,0c-0.3,0-0.5,0.2-0.5,0.4c0,0,0,0.1,0,0.1v2.5l0,0
		c0,0.8,0,1.6,0,2.5c0,0.3,0.1,0.6,0.4,0.8c0.8,0.9,1.7,1.7,2.5,2.6l4.3,4.3c0.2,0.2,0.5,0.2,0.7,0.1c0,0,0.1-0.1,0.1-0.1l5.2-5.2
		C14.7,9.1,14.7,8.8,14.6,8.6z"/>
	</g>
	<g id="menu-icon">
		<g>
			<path d="M14.7,7.5H1.3C1,7.5,0.8,7.7,0.8,8S1,8.5,1.3,8.5h13.5c0.3,0,0.5-0.2,0.5-0.5S15,7.5,14.7,7.5z"/>
			<path d="M1.3,4.6h13.5c0.3,0,0.5-0.2,0.5-0.5S15,3.6,14.7,3.6H1.3C1,3.6,0.8,3.8,0.8,4.1S1,4.6,1.3,4.6z"/>
			<path d="M14.7,11.4H1.3c-0.3,0-0.5,0.2-0.5,0.5s0.2,0.5,0.5,0.5h13.5c0.3,0,0.5-0.2,0.5-0.5S15,11.4,14.7,11.4z"/>
		</g>
	</g>
	<g id="heart-icon">
		<path d="M14.2,1.4c-1.8-1.5-4.5-1.1-6,0.7L8,2.4L7.8,2.1c-0.8-1-2.1-1.6-3.4-1.6c-2.3,0-4.2,1.9-4.2,4.3c0.1,1.8,0.7,3.5,1.8,5
  c1.7,2.2,3.8,4.1,6,5.8l0,0l0,0c2.3-1.7,4.3-3.6,6-5.8c1.1-1.5,1.7-3.2,1.8-5C15.8,3.4,15.2,2.2,14.2,1.4z M13.2,9.1
  c-1.5,1.8-3.1,3.5-5,5L8,14.2L7.8,14c-1.9-1.4-3.5-3.1-5-5C1.9,7.8,1.3,6.3,1.2,4.7c0-1.6,1.2-3,2.9-3.2l0.6,0C5.1,1.6,5.6,1.7,6,2
  C6.4,2.2,6.8,2.6,7.1,3c0.1,0.1,0.2,0.2,0.3,0.3C7.9,3.6,8.6,3.5,8.9,3C9.2,2.6,9.6,2.2,10,2c0.5-0.3,1-0.4,1.6-0.4
 c1.8,0,3.2,1.4,3.2,3.2C14.7,6.3,14.1,7.8,13.2,9.1z"/>
	</g>
	<g id="profile-icon">
		<path d="M11,8.2c-0.2-0.1-0.4-0.1-0.6-0.2h0c0.2-0.1,0.3-0.2,0.4-0.3c1.8-1.6,1.9-4.3,0.4-6.1C9.6-0.2,6.9-0.4,5.2,1.2
 C4.3,2,3.8,3.1,3.7,4.2C3.6,5.7,4.4,7.2,5.6,8C5.5,8,5.4,8.1,5.4,8.1c-3,1.1-5,3.9-5,7.1c0,0.4,0.2,0.7,0.5,0.7
 c0.3,0,0.5-0.2,0.6-0.6c0-0.3,0-0.6,0.1-1c0.2-1.1,0.6-2.1,1.3-2.9C5,8.4,9.1,7.9,12,10.1c1.6,1.2,2.6,3.1,2.6,5.1
 c0,0.2,0.1,0.4,0.2,0.5c0.2,0.1,0.4,0.2,0.6,0.1c0.2-0.1,0.3-0.3,0.3-0.6C15.6,12.2,13.8,9.4,11,8.2z M8,7.6
 c-1.8,0-3.2-1.4-3.2-3.2S6.2,1.2,8,1.2c0,0,0.1,0,0.1,0c1.7,0,3.1,1.5,3.1,3.2c0,0,0,0.1,0,0.1C11.1,6.3,9.7,7.7,8,7.6z"/>
	</g>
	<g id="search-icon">
		<path d="M15.5,14.9L11,10.2c0.9-1.1,1.4-2.4,1.4-3.9h0c0-3.3-2.7-6.1-6.1-6.1C3,0.3,0.3,3,0.3,6.3c0,3.3,2.7,6.1,6.1,6.1
		c1.5,0,2.8-0.5,3.9-1.4l4.6,4.6c0.1,0.1,0.2,0.2,0.4,0.2c0.1,0,0.3,0,0.3-0.1C15.7,15.4,15.7,15.1,15.5,14.9z M1.3,6.3
		c0-2.8,2.3-5.1,5.1-5.1c2.8,0,5.1,2.3,5.1,5.1c0,1.4-0.6,2.6-1.5,3.6c0,0,0,0,0,0c0,0,0,0,0,0c-0.9,0.9-2.2,1.5-3.6,1.5
		C3.6,11.4,1.3,9.1,1.3,6.3z"/>
	</g>
	<g id="up-arrow-icon">
		<g id="Icon_feather-chevron-right_00000091710865029120194290000015510072064444848816_">
			<path d="M0.4,11.6c0-0.1,0-0.3,0.1-0.4l7.1-7.2C7.7,4,7.9,3.9,8,3.9S8.3,4,8.4,4.1l7.1,7.2c0.2,0.2,0.2,0.5,0,0.7s-0.5,0.2-0.7,0
			L8,5.1l-6.8,6.8c-0.2,0.2-0.5,0.2-0.7,0C0.4,11.8,0.4,11.7,0.4,11.6z"/>
		</g>
	</g>
	<g id="trash-icon">
		<path d="M14.6,3.1h-3.2v-1c0-1.1-0.9-2-2-2H6.5c-1.1,0-2,0.9-2,2v1H1.4c-0.3,0-0.5,0.2-0.5,0.5s0.2,0.5,0.5,0.5h1v9.7
		c0,1.1,0.9,2,2,2h7.3c1.1,0,2-0.9,2-2V4.1h1c0.3,0,0.5-0.2,0.5-0.5S14.9,3.1,14.6,3.1z M5.6,2.2c0-0.5,0.4-1,1-1h2.9
		c0.5,0,1,0.4,1,1v1H5.6V2.2z M12.6,13.8c0,0.5-0.4,1-1,1h-1.5c0-0.1,0-0.1,0-0.2V7.4c0-0.3-0.2-0.5-0.5-0.5S9.2,7.1,9.2,7.4v7.2
		c0,0.1,0,0.1,0,0.2H6.6c0-0.1,0-0.1,0-0.2V7.4c0-0.3-0.2-0.5-0.5-0.5S5.6,7.1,5.6,7.4v7.2c0,0.1,0,0.1,0,0.2H4.3c-0.5,0-1-0.4-1-1
		V4.1h9.2V13.8z"/>
	</g>
	<g id="down-arrow-icon">
		<g id="Icon_feather-chevron-right_00000046323786481329918790000012642168084211862666_">
			<path d="M15.6,4.4c0,0.1,0,0.3-0.1,0.4l-7.1,7.2C8.3,12,8.1,12.1,8,12.1S7.7,12,7.6,11.9L0.5,4.8c-0.2-0.2-0.2-0.5,0-0.7
			s0.5-0.2,0.7,0L8,10.9l6.8-6.8c0.2-0.2,0.5-0.2,0.7,0C15.6,4.2,15.6,4.3,15.6,4.4z"/>
		</g>
	</g>
	<g id="bag-icon">
		<g>
			<path d="M9.6,6.3L9.6,6.3C9,6.3,8.4,6.6,8,7.1C7.6,6.7,7.2,6.4,6.6,6.4C6.1,6.3,5.5,6.5,5,6.8c-0.5,0.4-0.8,1-0.8,1.7
			c0,0.9,0.3,1.7,0.9,2.4c0.8,1,1.7,1.9,2.8,2.7L8,13.7l0.2-0.1c1-0.8,2-1.7,2.8-2.7c0.5-0.7,0.8-1.5,0.9-2.4
			C11.8,7.3,10.8,6.4,9.6,6.3z M10.1,10.3c-0.6,0.8-1.3,1.5-2.1,2.1c-0.8-0.6-1.5-1.3-2.1-2.1C5.5,9.8,5.2,9.2,5.2,8.5
			c0-0.6,0.5-1.2,1.2-1.2h0c0.2,0,0.4,0.1,0.6,0.1c0.2,0.1,0.3,0.2,0.4,0.4c0.2,0.3,0.7,0.4,1,0.2C8.5,8.1,8.6,8,8.6,7.9
			C8.7,7.7,8.9,7.6,9,7.5c0.6-0.3,1.3-0.1,1.6,0.5c0.1,0.2,0.1,0.4,0.1,0.6C10.8,9.2,10.5,9.8,10.1,10.3z"/>
			<path d="M14.3,14.2c0-0.7-0.1-1.3-0.1-2L13.9,6l0-0.1c0-0.3,0-0.6,0-0.8c-0.1-0.8-0.7-1.4-1.5-1.4l-1.2,0v0
			c0.1-0.9-0.2-1.7-0.7-2.4C9.9,0.6,9.1,0.2,8.2,0.1c-0.1,0-0.2,0-0.2,0c-0.6,0-1.2,0.2-1.8,0.6c-1,0.7-1.5,1.8-1.4,3l0,0H4.1
			c-0.1,0-0.3,0-0.4,0C3,3.7,2.4,4.2,2.2,4.9c0,0.2-0.1,0.4-0.1,0.6v0c0,0.7-0.1,1.4-0.1,2l-0.1,2.8c-0.1,1.3-0.1,2.6-0.2,3.9
			c0,0.4,0.1,0.9,0.4,1.2c0.3,0.3,0.7,0.5,1.1,0.5c0,0,0,0,0,0h9.3c0,0,0,0,0.1,0c0.4,0,0.8-0.1,1.1-0.4c0.3-0.3,0.5-0.7,0.5-1.1
			C14.3,14.3,14.3,14.3,14.3,14.2z M6.9,1.4L6.9,1.4C7.2,1.2,7.6,1.1,8,1.1c0.4,0,0.8,0.1,1.1,0.4c0.7,0.5,1.1,1.3,1,2.2l-4.2,0l0,0
			C5.7,2.8,6.1,1.9,6.9,1.4z M13.2,14.8L13.2,14.8L13.2,14.8L13.2,14.8C13.2,14.8,13.2,14.8,13.2,14.8z M13.1,14.7
			c-0.1,0.1-0.3,0.2-0.5,0.2H3.4c-0.2,0-0.4,0-0.5-0.2c-0.1-0.1-0.2-0.3-0.1-0.5l0.4-7.7l0-0.4c0-0.3,0-0.6,0-0.9
			c0-0.1,0-0.3,0.1-0.4c0.1-0.1,0.2-0.2,0.4-0.2c0,0,0,0,0,0c0,0,0,0,0.1,0l5.9,0c0.7,0,2.5,0,2.5,0c0.1,0,0.3,0,0.4,0.1
			c0.1,0.1,0.2,0.2,0.2,0.4c0,0,0,0.1,0,0.1c0,0.8,0.1,1.5,0.1,2.3l0.3,6.2c0,0.1,0,0.3,0,0.4l0,0.1C13.2,14.4,13.2,14.6,13.1,14.7z
			"/>
		</g>
	</g>
	<g id="right-arrow-icon">
		<g id="Icon_feather-chevron-right_00000067945757432465035260000013174044877586123400_">
			<path d="M4.4,0.4c0.1,0,0.3,0,0.4,0.1l7.2,7.1C12,7.7,12.1,7.9,12.1,8S12,8.3,11.9,8.4l-7.2,7.1c-0.2,0.2-0.5,0.2-0.7,0
			s-0.2-0.5,0-0.7L10.9,8L4.1,1.2C3.9,1,3.9,0.7,4.1,0.5C4.2,0.4,4.3,0.4,4.4,0.4z"/>
		</g>
	</g>
	<g id="location-icon">
		<g id="Grupo_7374" transform="translate(-76)">
			<path id="Trazado_39" d="M84,0.2c-3,0-5.5,2.5-5.5,5.5c0,1,0.3,2,0.8,2.9l4.4,7c0.1,0.1,0.2,0.2,0.4,0.2l0,0
			c0.2,0,0.3-0.1,0.4-0.2l4.3-7.1c1.6-2.6,0.7-6-1.9-7.5C86,0.4,85,0.2,84,0.2z M87.9,8l-3.9,6.5l-4-6.4c-1.3-2.2-0.7-5,1.5-6.3
			s5-0.7,6.3,1.5C88.8,4.7,88.8,6.6,87.9,8L87.9,8z"/>
			<path id="Trazado_40" d="M84,2.9c-1.5,0-2.8,1.2-2.8,2.8c0,1.5,1.2,2.8,2.8,2.8c1.5,0,2.8-1.2,2.8-2.8v0C86.8,4.2,85.5,2.9,84,2.9
			z M84,7.5c-1,0-1.8-0.8-1.8-1.8c0-1,0.8-1.8,1.8-1.8c1,0,1.8,0.8,1.8,1.8c0,0,0,0,0,0C85.8,6.7,85,7.5,84,7.5z"/>
		</g>
	</g>
	<g id="plus-icon">
		<path d="M15.2,7.5H8.5V0.8c0-0.3-0.2-0.5-0.5-0.5S7.5,0.5,7.5,0.8v6.7H0.8C0.5,7.5,0.3,7.7,0.3,8s0.2,0.5,0.5,0.5h6.7v6.7
		c0,0.3,0.2,0.5,0.5,0.5s0.5-0.2,0.5-0.5V8.5h6.7c0.3,0,0.5-0.2,0.5-0.5S15.5,7.5,15.2,7.5z"/>
	</g>
	<g id="minus-icon">
		<g id="Trazado_159">
			<path d="M15.2,8.5H0.8C0.5,8.5,0.3,8.3,0.3,8s0.2-0.5,0.5-0.5h14.4c0.3,0,0.5,0.2,0.5,0.5S15.5,8.5,15.2,8.5z"/>
		</g>
	</g>
	<g id="credit-card-icon">
		<path d="M13.8,2.3H2.2c-1,0-1.8,0.8-1.8,1.8v7.8c0,1,0.8,1.8,1.8,1.8h11.7c1,0,1.8-0.8,1.8-1.8V4.1C15.6,3.1,14.8,2.3,13.8,2.3z
		 M2.2,3.3h11.7c0.4,0,0.8,0.4,0.8,0.8v2.1H1.4V4.1C1.4,3.7,1.7,3.3,2.2,3.3z M13.8,12.7H2.2c-0.4,0-0.8-0.4-0.8-0.8V7.2h13.2v4.7
		C14.6,12.3,14.3,12.7,13.8,12.7z"/>
	</g>
	<g id="close-icon">
		<path d="M15.6,14.8L8.8,8l6.7-6.7c0.2-0.2,0.2-0.6,0-0.8c-0.2-0.2-0.5-0.2-0.7,0L8.1,7.2L1.3,0.4c-0.2-0.2-0.5-0.2-0.8,0
		c-0.2,0.2-0.2,0.5,0,0.7L7.3,8l-6.8,6.8c-0.2,0.2-0.2,0.5,0,0.7c0.2,0.2,0.5,0.2,0.8,0l6.8-6.8l6.7,6.7c0.2,0.2,0.5,0.2,0.7,0l0,0
		C15.7,15.2,15.7,14.9,15.6,14.8z"/>
	</g>
</svg>
