<?xml version="1.0" encoding="utf-8"?>
<!-- Generator: Adobe Illustrator 26.1.0, SVG Export Plug-In . SVG Version: 6.00 Build 0)  -->
<svg version="1.0"
	xmlns="http://www.w3.org/2000/svg"
	xmlns:xlink="http://www.w3.org/1999/xlink" x="0px" y="0px" viewBox="0 0 16 16" style="enable-background:new 0 0 16 16;" xml:space="preserve">
	<g id="youtube-icon">
		<path id="Icon_ionic-logo-youtube" d="M15.6,4.8c0.1-1.3-0.9-2.4-2.2-2.4c-1.6-0.1-3.3-0.1-5-0.1H7.8c-1.7,0-3.4,0-5,0.1
		C1.5,2.4,0.5,3.5,0.6,4.8C0.5,5.8,0.5,6.9,0.5,7.9s0,2.1,0.1,3.2c-0.1,1.3,0.9,2.4,2.2,2.4c1.7,0.1,3.5,0.1,5.3,0.1
		c1.8,0,3.6,0,5.3-0.1c1.3-0.1,2.3-1.1,2.2-2.4c0.1-1.1,0.1-2.1,0.1-3.2C15.7,6.9,15.7,5.8,15.6,4.8z M6.6,10.9V5l4.3,2.9L6.6,10.9z
		"/>
	</g>
</svg>
